HIERARCHY
ROOT bip01_pelvis
{
	OFFSET -0.141780 111.560104 -53.453648
	CHANNELS 6 Xposition Yposition Zposition Xrotation Yrotation Zrotation
	JOINT bip01_l_thigh
	{
		OFFSET -12.581326 0.000023 0.838757
		CHANNELS 3 Xrotation Yrotation Zrotation
		JOINT bip01_l_calf
		{
			OFFSET -5.405050 -43.060066 12.568863
			CHANNELS 3 Xrotation Yrotation Zrotation
			JOINT bip01_l_foot
			{
				OFFSET -6.378141 -25.639313 -28.000755
				CHANNELS 3 Xrotation Yrotation Zrotation
				JOINT bip01_l_toe0
				{
					OFFSET -1.312191 -43.345943 -5.410645
					CHANNELS 3 Xrotation Yrotation Zrotation
					End Site
					{
						OFFSET 0.668312 -0.011212 0.027710
					}
				}
			}
		}
	}
	JOINT bip01_r_thigh
	{
		OFFSET 12.581315 -0.000053 -0.838764
		CHANNELS 3 Xrotation Yrotation Zrotation
		JOINT bip01_r_calf
		{
			OFFSET 7.025425 -43.060097 11.740181
			CHANNELS 3 Xrotation Yrotation Zrotation
			JOINT bip01_r_foot
			{
				OFFSET 2.604660 -25.639347 -28.599602
				CHANNELS 3 Xrotation Yrotation Zrotation
				JOINT bip01_r_toe0
				{
					OFFSET 0.582125 -43.345810 -5.536972
					CHANNELS 3 Xrotation Yrotation Zrotation
					End Site
					{
						OFFSET 0.658720 0.011207 -0.116180
					}
				}
			}
		}
	}
	JOINT bip01_spine
	{
		OFFSET 1.130847 -10.257637 16.963192
		CHANNELS 3 Xrotation Yrotation Zrotation
		JOINT bip01_spine1
		{
			OFFSET 2.125925 -0.408882 31.891911
			CHANNELS 3 Xrotation Yrotation Zrotation
			JOINT bip01_spine2
			{
				OFFSET 3.104555 -1.436646 46.949230
				CHANNELS 3 Xrotation Yrotation Zrotation
				JOINT bip01_neck
				{
					OFFSET 1.831697 12.621635 29.209831
					CHANNELS 3 Xrotation Yrotation Zrotation
					JOINT bip01_head
					{
						OFFSET 0.933028 14.642593 15.308128
						CHANNELS 3 Xrotation Yrotation Zrotation
						JOINT bip01_ponytail1
						{
							OFFSET 12.881245 30.917107 3.869919
							CHANNELS 3 Xrotation Yrotation Zrotation
							End Site
							{
								OFFSET -0.556711 0.315430 0.195229
							}
						}
						JOINT bip01_ponytail2
						{
							OFFSET -12.308470 31.163292 5.588448
							CHANNELS 3 Xrotation Yrotation Zrotation
							End Site
							{
								OFFSET -0.577699 -0.315430 -0.119598
							}
						}
						JOINT bone01
						{
							OFFSET -0.035753 10.693596 0.910164
							CHANNELS 3 Xrotation Yrotation Zrotation
							End Site
							{
								OFFSET -0.667642 0.000000 0.042305
							}
						}
						JOINT bone03
						{
							OFFSET -2.859410 10.011330 9.974838
							CHANNELS 3 Xrotation Yrotation Zrotation
							End Site
							{
								OFFSET 0.042301 0.000000 0.667641
							}
						}
						JOINT bone05
						{
							OFFSET 4.144515 10.011345 9.531006
							CHANNELS 3 Xrotation Yrotation Zrotation
							End Site
							{
								OFFSET 0.042301 0.000000 0.667641
							}
						}
					}
					JOINT bip01_l_clavicle
					{
						OFFSET -6.817371 -1.737137 -4.124603
						CHANNELS 3 Xrotation Yrotation Zrotation
						JOINT bip01_l_upperarm
						{
							OFFSET -13.915021 0.119522 7.203735
							CHANNELS 3 Xrotation Yrotation Zrotation
							JOINT bip01_l_forearm
							{
								OFFSET 0.900768 -49.360191 -24.691143
								CHANNELS 3 Xrotation Yrotation Zrotation
								JOINT bip01_l_hand
								{
									OFFSET 5.453267 -54.192162 0.261513
									CHANNELS 3 Xrotation Yrotation Zrotation
									End Site
									{
										OFFSET -0.048247 0.019447 -0.666954
									}
								}
							}
						}
					}
					JOINT bip01_r_clavicle
					{
						OFFSET 6.291911 -1.668388 -4.989365
						CHANNELS 3 Xrotation Yrotation Zrotation
						JOINT bip01_r_upperarm
						{
							OFFSET 14.738678 0.269737 5.313599
							CHANNELS 3 Xrotation Yrotation Zrotation
							JOINT bip01_r_forearm
							{
								OFFSET -4.170362 -49.360199 -24.353104
								CHANNELS 3 Xrotation Yrotation Zrotation
								JOINT bip01_r_hand
								{
									OFFSET -5.370342 -54.192158 0.983074
									CHANNELS 3 Xrotation Yrotation Zrotation
									End Site
									{
										OFFSET 0.040714 -0.019448 0.667458
									}
								}
							}
						}
					}
				}
			}
		}
	}
	JOINT bip01_tail
	{
		OFFSET -1.140240 5.694984 -17.420544
		CHANNELS 3 Xrotation Yrotation Zrotation
		JOINT bip01_tail1
		{
			OFFSET -0.799711 -16.655739 -11.995483
			CHANNELS 3 Xrotation Yrotation Zrotation
			JOINT bip01_tail2
			{
				OFFSET -0.560408 -49.655807 -8.404999
				CHANNELS 3 Xrotation Yrotation Zrotation
				End Site
				{
					OFFSET -0.667499 0.000004 0.044495
				}
			}
		}
	}
}
MOTION
Frames: 12
Frame Time: 0.041667
3.280906 65.837677 0.210545 -6.095101 -0.786353 -0.232242 39.877902 -11.894697 1.092104 24.330981 -4.035931 -1.333408 -29.857581 7.122054 3.466226 -28.436519 -2.569568 4.958378 45.998005 11.976866 -4.687922 11.249457 1.638038 -0.661749 -13.447883 -13.106107 3.053053 -35.793852 3.128146 -1.894376 -14.885398 -2.810528 -0.922404 -12.843421 -7.360375 -1.426472 34.952882 2.540335 -2.882631 9.924274 2.845871 0.297165 -27.765843 -2.422746 -1.206070 -22.194650 -13.894461 12.020963 -17.893362 18.227920 10.751878 -4.107993 -0.128036 0.121073 0.139526 -0.368197 0.089126 0.169430 0.392453 0.079216 -1.291948 -27.145590 14.624142 2.048610 28.381383 -15.078469 -36.273144 -5.219660 4.442588 32.181444 3.384339 -8.613794 -11.457980 29.467567 4.913930 32.798995 -33.593896 25.115939 -88.853945 7.226271 3.889560 125.996541 -26.410376 -13.179400 18.300899 -0.098090 6.464792 18.720847 -5.631643 -2.448607 6.812053 -0.643205 -2.195057 
3.316123 65.641464 0.210552 -6.110548 -0.752914 -0.251589 39.918098 -11.901428 1.032494 24.488680 -4.063528 -1.336334 -30.121042 7.109968 3.619200 -28.358647 -2.554306 4.922330 45.879760 11.959608 -4.663720 11.536401 1.677933 -0.682751 -13.513706 -13.141646 3.095751 -35.902869 3.118982 -1.881520 -15.063297 -2.839466 -0.936894 -12.534433 -7.460669 -1.422538 34.595407 2.572080 -2.787782 10.577861 2.373380 0.561979 -27.298053 -3.463208 -1.701896 -22.007165 -13.273519 11.705063 -20.656666 14.539473 13.496791 -4.215658 -0.128413 0.127944 0.107543 -0.274376 0.089889 0.131138 0.348769 0.084410 -2.019411 -26.484018 14.485986 2.342811 28.177408 -15.473853 -36.418039 -5.245492 4.453166 32.302990 3.414011 -8.684798 -11.955524 29.974610 4.597843 32.878570 -33.265200 25.356072 -88.920477 7.228319 3.896050 126.348104 -26.585977 -13.570059 19.136484 -0.028580 6.417792 17.919249 -5.460039 -2.457302 6.863078 -0.644357 -2.198166 
3.368949 65.445251 0.210537 -6.123017 -0.722800 -0.254629 39.949602 -11.911133 0.973704 24.661023 -4.093697 -1.339444 -30.415515 7.092169 3.788804 -28.261769 -2.529530 4.881111 45.749758 11.938647 -4.633511 11.850588 1.721490 -0.705976 -13.636141 -13.176237 3.120929 -35.977994 3.108378 -1.866511 -15.208832 -2.865219 -0.948734 -12.214101 -7.551040 -1.413102 34.181945 2.594041 -2.679134 11.256761 1.882747 0.824102 -26.823150 -4.555072 -2.192708 -21.884869 -12.756699 11.325578 -22.844713 11.282973 15.658707 -4.328143 -0.128823 0.135121 0.078396 -0.193344 0.090142 0.093991 0.297335 0.087398 -2.758871 -25.793132 14.361530 2.693509 27.954663 -15.895771 -36.627856 -5.282943 4.468365 32.456403 3.442948 -8.757048 -12.476824 30.511620 4.290709 33.038571 -32.927406 25.628340 -89.005991 7.230957 3.904400 126.637322 -26.721302 -13.960843 20.030827 0.047711 6.367253 17.125275 -5.287220 -2.456172 6.652043 -0.635056 -2.187416 
3.404166 65.445267 -0.009888 -6.129066 -0.692439 -0.242398 39.969338 -11.916111 0.910287 24.852762 -4.127268 -1.342794 -30.741616 7.068348 3.974736 -28.150404 -2.500196 4.834159 45.618113 11.922018 -4.596334 12.183184 1.767458 -0.730819 -13.814000 -13.216542 3.130478 -36.016732 3.093432 -1.850831 -15.330395 -2.894543 -0.962215 -11.879582 -7.627728 -1.401464 33.711621 2.614030 -2.564035 11.918673 1.384956 1.079289 -26.344504 -5.653659 -2.651140 -21.839197 -12.359022 10.875540 -24.393512 8.782251 17.183725 -4.440446 -0.129236 0.142291 0.051929 -0.127576 0.081895 0.062798 0.242583 0.078728 -3.470104 -25.096207 14.268220 3.092702 27.715953 -16.347399 -36.902853 -5.332108 4.488081 32.635689 3.474645 -8.827623 -12.990314 31.055781 3.998720 33.277109 -32.582666 25.939293 -89.100111 7.233849 3.913587 126.861543 -26.819995 -14.343559 20.979003 0.128453 6.310728 16.337251 -5.113220 -2.459555 6.204317 -0.620360 -2.162186 
3.439383 65.445259 -0.009884 -6.134921 -0.658852 -0.225528 39.977104 -11.920050 0.841276 25.054423 -4.162591 -1.346197 -31.087978 7.041164 4.171617 -28.011601 -2.463397 4.777659 45.478651 11.901394 -4.555746 12.538162 1.816353 -0.757626 -14.045391 -13.258637 3.123615 -36.018774 3.080687 -1.832470 -15.426927 -2.923778 -0.976734 -11.537643 -7.690404 -1.387550 33.195437 2.623298 -2.436129 12.533906 0.910589 1.307025 -25.863176 -6.717222 -3.070771 -21.876010 -12.106312 10.351503 -25.238046 7.355917 18.026556 -4.557617 -0.129701 0.149761 0.032352 -0.072191 0.068470 0.039795 0.180453 0.057916 -4.106647 -24.409892 14.209719 3.534479 27.465871 -16.823048 -37.235155 -5.391647 4.511590 32.846848 3.502671 -8.905256 -13.464354 31.581770 3.734761 33.587759 -32.232848 26.285472 -89.207325 7.237151 3.924061 127.019252 -26.884454 -14.725690 21.979571 0.212457 6.251984 15.563416 -4.940663 -2.457562 5.573087 -0.594171 -2.126585 
3.492209 65.445259 -0.230328 -6.137239 -0.624816 -0.233609 39.974830 -11.925524 0.774776 25.270971 -4.200531 -1.349713 -31.461736 7.007852 4.387833 -27.855593 -2.424688 4.714473 45.333530 11.881578 -4.506386 12.916152 1.868230 -0.786503 -14.339484 -13.307165 3.100338 -35.978742 3.058936 -1.811637 -15.498731 -2.956916 -0.989260 -11.181005 -7.746579 -1.368910 32.637919 2.631101 -2.300087 13.062343 0.462690 1.497253 -25.373415 -7.696413 -3.442523 -22.085266 -11.636458 8.912424 -25.669572 6.604823 18.485429 -4.679539 -0.130161 0.157486 0.016250 -0.031589 0.049711 0.018780 0.113448 0.031877 -4.635327 -23.757806 14.205839 4.003182 27.195599 -17.310197 -37.624497 -5.461568 4.538693 33.078743 3.535345 -8.980334 -13.871495 32.068267 3.505185 33.959403 -31.876554 26.654339 -89.326430 7.240855 3.935706 127.116842 -26.919184 -15.103150 23.015883 0.299765 6.188072 14.807099 -4.765471 -2.452781 4.772702 -0.564813 -2.080326 
3.527426 65.445267 -0.230328 -6.139347 -0.587569 -0.236759 39.956504 -11.925532 0.701268 25.497513 -4.240234 -1.353235 -31.855944 6.970694 4.614762 -27.677359 -2.376669 4.645928 45.186465 11.859400 -4.455058 13.303535 1.921194 -0.816449 -14.689946 -13.357761 3.060222 -35.902159 3.040428 -1.791380 -15.549496 -2.986623 -1.002219 -10.814004 -7.791826 -1.352150 32.041527 2.632340 -2.157870 13.471242 0.065165 1.631890 -24.870773 -8.545233 -3.745643 -22.456238 -10.700930 6.095293 -26.040248 5.932578 18.918427 -4.801282 -0.130697 0.165299 0.002890 -0.006174 0.022327 0.009113 0.040202 -0.005074 -5.013041 -23.161153 14.266533 4.507107 26.914272 -17.818224 -38.063787 -5.540681 4.568703 33.342549 3.563582 -9.062662 -14.179923 32.492245 3.321562 34.384747 -31.510630 27.044479 -89.449626 7.244732 3.947754 127.142373 -26.920386 -15.478204 24.080515 0.387136 6.121669 14.067914 -4.591108 -2.446126 3.804011 -0.531505 -2.026520 
3.562643 65.445259 -0.230331 -6.138222 -0.549963 -0.245484 39.928961 -11.927542 0.625267 25.734198 -4.281726 -1.356750 -32.270663 6.922827 4.856407 -27.484381 -2.324277 4.571532 45.029426 11.830424 -4.393886 13.714860 1.977200 -0.848633 -15.104577 -13.411896 2.998918 -35.777712 3.016848 -1.768536 -15.582100 -3.020168 -1.012827 -10.436181 -7.830771 -1.330842 31.413881 2.628021 -2.007104 13.712430 -0.266739 1.699599 -24.352138 -9.216012 -3.974793 -22.866358 -9.459242 2.455046 -26.350696 5.330388 19.320607 -4.922863 -0.131214 0.173053 -0.000331 0.008324 -0.010573 0.004461 -0.037638 -0.050650 -5.202736 -22.641553 14.398245 5.028006 26.623784 -18.336425 -38.557432 -5.629847 4.601702 33.629741 3.593946 -9.145313 -14.360531 32.836008 3.197624 34.861876 -31.139826 27.456688 -89.583375 7.249202 3.960835 127.104875 -26.885078 -15.846008 25.173888 0.476523 6.054575 13.349201 -4.422090 -2.435498 2.689846 -0.493207 -1.962024 
3.597861 65.445267 -0.450768 -6.127532 -0.512207 -0.218375 39.883452 -11.926864 0.551391 25.985955 -4.325878 -1.360300 -32.705459 6.874135 5.108528 -27.266737 -2.264533 4.487339 44.876812 11.808496 -4.330694 14.140698 2.034934 -0.882375 -15.578572 -13.467189 2.923680 -35.605404 2.988155 -1.746151 -15.591024 -3.056815 -1.028480 -10.043303 -7.859364 -1.304473 30.761990 2.616397 -1.851627 13.854978 -0.568698 1.716600 -23.839373 -9.816138 -4.168053 -23.219472 -8.093428 -1.455286 -26.611143 4.799834 19.698971 -5.044405 -0.131757 0.180798 -0.002861 0.004102 -0.045760 0.002611 -0.117625 -0.104409 -5.271496 -22.158910 14.581839 5.563145 26.319470 -18.858045 -39.093100 -5.726912 4.636638 33.940931 3.624467 -9.230463 -14.463513 33.126848 3.111958 35.376890 -30.761669 27.878553 -89.723120 7.254477 3.974500 126.996699 -26.815794 -16.206425 26.282107 0.563049 5.982925 12.657839 -4.256404 -2.427984 1.431354 -0.450412 -1.886603 
3.633078 65.445251 -0.891632 -6.122941 -0.471061 -0.227648 39.822687 -11.925243 0.470969 26.247987 -4.371845 -1.363786 -33.157044 6.817639 5.374344 -27.034153 -2.200532 4.397109 44.718184 11.779613 -4.260315 14.576406 2.093734 -0.917340 -16.117303 -13.526296 2.823577 -35.390451 2.961399 -1.718511 -15.585242 -3.090471 -1.040736 -9.643863 -7.880553 -1.280601 30.089705 2.598471 -1.688703 13.978053 -0.879854 1.711651 -23.356346 -10.474827 -4.374042 -23.459582 -6.793651 -5.098477 -26.822954 4.336464 20.051593 -5.170668 -0.132343 0.188843 0.001595 -0.010546 -0.086214 0.009967 -0.197431 -0.163848 -5.312189 -21.663615 14.788230 6.102795 26.007748 -19.383334 -39.675988 -5.832893 4.673621 34.278827 3.647086 -9.320576 -14.553946 33.426034 3.045079 35.926068 -30.374848 28.309423 -89.859745 7.263245 3.987809 126.820343 -26.722366 -16.564687 27.400415 0.650970 5.912720 11.995130 -4.093770 -2.412648 0.043858 -0.405975 -1.805590 
3.650687 65.445267 -0.891632 -6.108473 -0.429658 -0.220520 39.749355 -11.926947 0.392518 26.367223 -4.392767 -1.365304 -33.618355 6.752781 5.649086 -26.781935 -2.130759 4.300546 44.555762 11.750096 -4.184155 15.022106 2.153601 -0.953565 -16.717414 -13.589842 2.709709 -35.130286 2.930254 -1.691019 -15.564965 -3.128003 -1.050445 -9.233633 -7.895308 -1.252482 29.400235 2.575921 -1.523197 14.082224 -1.201056 1.689521 -22.898233 -11.171728 -4.580997 -23.593191 -5.765202 -7.950303 -26.989233 3.942552 20.379222 -5.291835 -0.132938 0.196616 0.010314 -0.039576 -0.128931 0.023181 -0.279072 -0.234881 -5.326914 -21.167593 15.015401 6.645783 25.689352 -19.906339 -40.298184 -5.946420 4.711902 34.640558 3.675549 -9.412695 -14.636868 33.724636 2.995039 36.505787 -29.987099 28.748143 -90.001833 7.243445 4.002198 126.574142 -26.593842 -16.914709 28.516738 0.735255 5.838952 11.362947 -3.935753 -2.397528 -1.461560 -0.358701 -1.714923 
3.685904 65.445251 -1.332500 -6.093718 -0.384597 -0.234602 39.657137 -11.924056 0.309479 26.089284 -4.344004 -1.361699 -34.093063 6.682546 5.929406 -26.517557 -2.056723 4.197718 44.397503 11.723092 -4.103425 15.483241 2.215235 -0.991528 -17.379199 -13.652483 2.570052 -34.816374 2.895635 -1.664987 -15.527465 -3.161665 -1.063865 -8.812545 -7.902858 -1.223408 28.700656 2.548430 -1.355859 14.160047 -1.524681 1.649004 -22.468269 -11.887289 -4.787842 -23.643603 -5.208034 -9.481595 -27.112417 3.607351 20.679250 -5.417659 -0.132731 0.207990 0.022823 -0.080536 -0.174088 0.041581 -0.360623 -0.305076 -5.313992 -20.669657 15.265305 7.178093 25.364066 -20.427037 -40.960481 -6.067700 4.751295 35.023759 3.697739 -9.508896 -14.706582 34.019584 2.963384 37.103640 -29.591238 29.181109 -90.143122 7.258995 4.015850 126.252236 -26.431954 -17.258705 29.628398 0.815400 5.766706 10.765409 -3.782315 -2.382851 -3.077072 -0.312482 -1.616179 
